<svg width="19" height="24" viewBox="0 0 19 24" fill="none" xmlns="http://www.w3.org/2000/svg">
<path d="M1.29492 5.75C0.880708 5.75 0.544922 6.08579 0.544922 6.5C0.544922 6.91421 0.880708 7.25 1.29492 7.25V5.75ZM17.8253 7.03033C18.1181 6.73744 18.1181 6.26256 17.8253 5.96967L13.0523 1.1967C12.7594 0.903806 12.2845 0.903806 11.9916 1.1967C11.6987 1.48959 11.6987 1.96447 11.9916 2.25736L16.2343 6.5L11.9916 10.7426C11.6987 11.0355 11.6987 11.5104 11.9916 11.8033C12.2845 12.0962 12.7594 12.0962 13.0523 11.8033L17.8253 7.03033ZM1.29492 7.25H17.2949V5.75H1.29492V7.25Z" fill="url(#paint0_linear_1_621)"/>
<path d="M17.2949 18.25C17.7091 18.25 18.0449 17.9142 18.0449 17.5C18.0449 17.0858 17.7091 16.75 17.2949 16.75L17.2949 18.25ZM0.764591 16.9697C0.471699 17.2626 0.471699 17.7374 0.764591 18.0303L5.53756 22.8033C5.83046 23.0962 6.30533 23.0962 6.59822 22.8033C6.89112 22.5104 6.89112 22.0355 6.59822 21.7426L2.35558 17.5L6.59822 13.2574C6.89112 12.9645 6.89112 12.4896 6.59822 12.1967C6.30533 11.9038 5.83046 11.9038 5.53756 12.1967L0.764591 16.9697ZM17.2949 16.75L1.29492 16.75L1.29492 18.25L17.2949 18.25L17.2949 16.75Z" fill="url(#paint1_linear_1_621)"/>
<defs>
<linearGradient id="paint0_linear_1_621" x1="1.29492" y1="7" x2="17.2949" y2="7.00003" gradientUnits="userSpaceOnUse">
<stop stop-color="#F3510D"/>
<stop offset="1" stop-color="#F67611"/>
</linearGradient>
<linearGradient id="paint1_linear_1_621" x1="17.2949" y1="17" x2="1.29492" y2="17" gradientUnits="userSpaceOnUse">
<stop stop-color="#F3510D"/>
<stop offset="1" stop-color="#F67611"/>
</linearGradient>
</defs>
</svg>
