<svg width="18" height="24" viewBox="0 0 18 24" fill="none" xmlns="http://www.w3.org/2000/svg">
<path d="M0.999756 5.75C0.585542 5.75 0.249756 6.08579 0.249756 6.5C0.249756 6.91421 0.585542 7.25 0.999756 7.25V5.75ZM17.5301 7.03033C17.823 6.73744 17.823 6.26256 17.5301 5.96967L12.7571 1.1967C12.4642 0.903806 11.9893 0.903806 11.6965 1.1967C11.4036 1.48959 11.4036 1.96447 11.6965 2.25736L15.9391 6.5L11.6965 10.7426C11.4036 11.0355 11.4036 11.5104 11.6965 11.8033C11.9893 12.0962 12.4642 12.0962 12.7571 11.8033L17.5301 7.03033ZM0.999756 7.25H16.9998V5.75H0.999756V7.25Z" fill="url(#paint0_linear_1_77)"/>
<path d="M16.9998 18.25C17.414 18.25 17.7498 17.9142 17.7498 17.5C17.7498 17.0858 17.414 16.75 16.9998 16.75L16.9998 18.25ZM0.469425 16.9697C0.176533 17.2626 0.176533 17.7374 0.469425 18.0303L5.2424 22.8033C5.53529 23.0962 6.01016 23.0962 6.30306 22.8033C6.59595 22.5104 6.59595 22.0355 6.30306 21.7426L2.06042 17.5L6.30306 13.2574C6.59595 12.9645 6.59595 12.4896 6.30306 12.1967C6.01016 11.9038 5.53529 11.9038 5.2424 12.1967L0.469425 16.9697ZM16.9998 16.75L0.999756 16.75L0.999756 18.25L16.9998 18.25L16.9998 16.75Z" fill="url(#paint1_linear_1_77)"/>
<defs>
<linearGradient id="paint0_linear_1_77" x1="0.999756" y1="7" x2="16.9998" y2="7.00003" gradientUnits="userSpaceOnUse">
<stop stop-color="#F3510D"/>
<stop offset="1" stop-color="#F67611"/>
</linearGradient>
<linearGradient id="paint1_linear_1_77" x1="16.9998" y1="17" x2="0.999756" y2="17" gradientUnits="userSpaceOnUse">
<stop stop-color="#F3510D"/>
<stop offset="1" stop-color="#F67611"/>
</linearGradient>
</defs>
</svg>
