<svg width="34" height="34" viewBox="0 0 34 34" fill="none" xmlns="http://www.w3.org/2000/svg">
<rect x="-0.000915527" y="0.0400391" width="33.5742" height="33.5742" rx="4.41765" fill="url(#paint0_linear_1_187)"/>
<path d="M9.71796 11.3051C9.35199 11.3051 9.05531 11.6018 9.05531 11.9678C9.05531 12.3337 9.35199 12.6304 9.71796 12.6304V11.3051ZM24.323 12.4363C24.5818 12.1776 24.5818 11.758 24.323 11.4992L20.1059 7.28215C19.8472 7.02337 19.4276 7.02337 19.1688 7.28215C18.91 7.54093 18.91 7.96049 19.1688 8.21927L22.9173 11.9678L19.1688 15.7163C18.91 15.9751 18.91 16.3946 19.1688 16.6534C19.4276 16.9122 19.8472 16.9122 20.1059 16.6534L24.323 12.4363ZM9.71796 12.6304H23.8544V11.3051H9.71796V12.6304Z" fill="white"/>
<path d="M23.8544 22.3492C24.2203 22.3492 24.517 22.0525 24.517 21.6865C24.517 21.3206 24.2203 21.0239 23.8544 21.0239L23.8544 22.3492ZM9.24932 21.218C8.99054 21.4767 8.99054 21.8963 9.24932 22.1551L13.4664 26.3722C13.7252 26.6309 14.1447 26.6309 14.4035 26.3722C14.6623 26.1134 14.6623 25.6938 14.4035 25.435L10.655 21.6865L14.4035 17.938C14.6623 17.6792 14.6623 17.2597 14.4035 17.0009C14.1447 16.7421 13.7252 16.7421 13.4664 17.0009L9.24932 21.218ZM23.8544 21.0239L9.71788 21.0239L9.71788 22.3492L23.8544 22.3492L23.8544 21.0239Z" fill="white"/>
<defs>
<linearGradient id="paint0_linear_1_187" x1="-0.000915527" y1="16.8271" x2="33.5732" y2="16.8271" gradientUnits="userSpaceOnUse">
<stop stop-color="#F3510D"/>
<stop offset="1" stop-color="#F67611"/>
</linearGradient>
</defs>
</svg>
